<mxfile host="app.diagrams.net" modified="2022-03-31T13:18:35.191Z" agent="5.0 (Windows NT 10.0; Win64; x64) AppleWebKit/537.36 (KHTML, like Gecko) Chrome/99.0.4844.84 Safari/537.36" etag="TwGzr_OvJ8bsvRx5Vsi8" version="17.3.0" type="github">
  <diagram id="C5RBs43oDa-KdzZeNtuy" name="Page-1">
    <mxGraphModel dx="981" dy="574" grid="1" gridSize="15" guides="1" tooltips="1" connect="1" arrows="1" fold="1" page="1" pageScale="1" pageWidth="827" pageHeight="1169" math="0" shadow="0">
      <root>
        <mxCell id="WIyWlLk6GJQsqaUBKTNV-0" />
        <mxCell id="WIyWlLk6GJQsqaUBKTNV-1" parent="WIyWlLk6GJQsqaUBKTNV-0" />
        <mxCell id="-9JT4zHoGY7LnEIbJ8e5-10" value="" style="edgeStyle=orthogonalEdgeStyle;rounded=0;orthogonalLoop=1;jettySize=auto;html=1;fontColor=#FF3C00;" edge="1" parent="WIyWlLk6GJQsqaUBKTNV-1" source="-9JT4zHoGY7LnEIbJ8e5-8" target="-9JT4zHoGY7LnEIbJ8e5-9">
          <mxGeometry relative="1" as="geometry">
            <Array as="points">
              <mxPoint x="240" y="62" />
            </Array>
          </mxGeometry>
        </mxCell>
        <mxCell id="-9JT4zHoGY7LnEIbJ8e5-15" style="edgeStyle=orthogonalEdgeStyle;rounded=0;orthogonalLoop=1;jettySize=auto;html=1;exitX=0.5;exitY=1;exitDx=0;exitDy=0;fontColor=#FF3C00;entryX=0.5;entryY=0;entryDx=0;entryDy=0;" edge="1" parent="WIyWlLk6GJQsqaUBKTNV-1" source="-9JT4zHoGY7LnEIbJ8e5-8" target="-9JT4zHoGY7LnEIbJ8e5-12">
          <mxGeometry relative="1" as="geometry">
            <mxPoint x="414.1724137931035" y="135" as="targetPoint" />
            <Array as="points" />
          </mxGeometry>
        </mxCell>
        <mxCell id="-9JT4zHoGY7LnEIbJ8e5-8" value="If the year &lt;br&gt;divisible &lt;br&gt;by 4" style="rhombus;whiteSpace=wrap;html=1;fontColor=#333333;fillColor=#f5f5f5;strokeColor=#666666;" vertex="1" parent="WIyWlLk6GJQsqaUBKTNV-1">
          <mxGeometry x="354" y="15" width="120" height="95" as="geometry" />
        </mxCell>
        <mxCell id="-9JT4zHoGY7LnEIbJ8e5-9" value="Not Leap Year" style="rhombus;whiteSpace=wrap;html=1;fillColor=#f8cecc;strokeColor=#b85450;" vertex="1" parent="WIyWlLk6GJQsqaUBKTNV-1">
          <mxGeometry x="180" y="75" width="120" height="95" as="geometry" />
        </mxCell>
        <mxCell id="-9JT4zHoGY7LnEIbJ8e5-21" value="" style="edgeStyle=orthogonalEdgeStyle;rounded=0;orthogonalLoop=1;jettySize=auto;html=1;fontColor=#FF3C00;entryX=0.5;entryY=0;entryDx=0;entryDy=0;" edge="1" parent="WIyWlLk6GJQsqaUBKTNV-1" source="-9JT4zHoGY7LnEIbJ8e5-12" target="-9JT4zHoGY7LnEIbJ8e5-20">
          <mxGeometry relative="1" as="geometry">
            <mxPoint x="240" y="198" as="targetPoint" />
            <Array as="points">
              <mxPoint x="327" y="198" />
              <mxPoint x="240" y="198" />
            </Array>
          </mxGeometry>
        </mxCell>
        <mxCell id="-9JT4zHoGY7LnEIbJ8e5-24" value="" style="edgeStyle=orthogonalEdgeStyle;rounded=0;orthogonalLoop=1;jettySize=auto;html=1;fontColor=#FF3C00;" edge="1" parent="WIyWlLk6GJQsqaUBKTNV-1" source="-9JT4zHoGY7LnEIbJ8e5-12" target="-9JT4zHoGY7LnEIbJ8e5-23">
          <mxGeometry relative="1" as="geometry" />
        </mxCell>
        <mxCell id="-9JT4zHoGY7LnEIbJ8e5-12" value="If the year &lt;br&gt;divisible &lt;br&gt;by 100" style="rhombus;whiteSpace=wrap;html=1;fontColor=#333333;fillColor=#f5f5f5;strokeColor=#666666;" vertex="1" parent="WIyWlLk6GJQsqaUBKTNV-1">
          <mxGeometry x="354" y="150" width="120" height="95" as="geometry" />
        </mxCell>
        <mxCell id="-9JT4zHoGY7LnEIbJ8e5-20" value="Leap year" style="rhombus;whiteSpace=wrap;html=1;fillColor=#d5e8d4;strokeColor=#82b366;" vertex="1" parent="WIyWlLk6GJQsqaUBKTNV-1">
          <mxGeometry x="180" y="210" width="120" height="95" as="geometry" />
        </mxCell>
        <mxCell id="-9JT4zHoGY7LnEIbJ8e5-26" value="" style="edgeStyle=orthogonalEdgeStyle;rounded=0;orthogonalLoop=1;jettySize=auto;html=1;fontColor=#FF3C00;entryX=0.5;entryY=0;entryDx=0;entryDy=0;" edge="1" parent="WIyWlLk6GJQsqaUBKTNV-1" source="-9JT4zHoGY7LnEIbJ8e5-23" target="-9JT4zHoGY7LnEIbJ8e5-25">
          <mxGeometry relative="1" as="geometry">
            <Array as="points">
              <mxPoint x="327" y="372" />
              <mxPoint x="240" y="372" />
            </Array>
          </mxGeometry>
        </mxCell>
        <mxCell id="-9JT4zHoGY7LnEIbJ8e5-28" value="" style="edgeStyle=orthogonalEdgeStyle;rounded=0;orthogonalLoop=1;jettySize=auto;html=1;fontColor=#FF3C00;" edge="1" parent="WIyWlLk6GJQsqaUBKTNV-1" source="-9JT4zHoGY7LnEIbJ8e5-23" target="-9JT4zHoGY7LnEIbJ8e5-27">
          <mxGeometry relative="1" as="geometry" />
        </mxCell>
        <mxCell id="-9JT4zHoGY7LnEIbJ8e5-23" value="If the year &lt;br&gt;divisible &lt;br&gt;by 400" style="rhombus;whiteSpace=wrap;html=1;fontColor=#333333;fillColor=#f5f5f5;strokeColor=#666666;" vertex="1" parent="WIyWlLk6GJQsqaUBKTNV-1">
          <mxGeometry x="354" y="325" width="120" height="95" as="geometry" />
        </mxCell>
        <mxCell id="-9JT4zHoGY7LnEIbJ8e5-25" value="Not Leap year" style="rhombus;whiteSpace=wrap;html=1;fillColor=#f8cecc;strokeColor=#b85450;" vertex="1" parent="WIyWlLk6GJQsqaUBKTNV-1">
          <mxGeometry x="180" y="390" width="120" height="95" as="geometry" />
        </mxCell>
        <mxCell id="-9JT4zHoGY7LnEIbJ8e5-27" value="Leap year" style="rhombus;whiteSpace=wrap;html=1;fillColor=#d5e8d4;strokeColor=#82b366;" vertex="1" parent="WIyWlLk6GJQsqaUBKTNV-1">
          <mxGeometry x="554" y="325" width="120" height="95" as="geometry" />
        </mxCell>
        <mxCell id="-9JT4zHoGY7LnEIbJ8e5-30" value="&lt;font color=&quot;#000000&quot;&gt;NO&lt;/font&gt;" style="text;html=1;strokeColor=none;fillColor=none;align=center;verticalAlign=middle;whiteSpace=wrap;rounded=0;labelBackgroundColor=#FFFFFF;fontColor=#FF3C00;" vertex="1" parent="WIyWlLk6GJQsqaUBKTNV-1">
          <mxGeometry x="315" y="60" width="60" height="30" as="geometry" />
        </mxCell>
        <mxCell id="-9JT4zHoGY7LnEIbJ8e5-31" value="YES" style="text;html=1;strokeColor=none;fillColor=none;align=center;verticalAlign=middle;whiteSpace=wrap;rounded=0;labelBackgroundColor=#FFFFFF;fontColor=#000000;" vertex="1" parent="WIyWlLk6GJQsqaUBKTNV-1">
          <mxGeometry x="405" y="105" width="60" height="30" as="geometry" />
        </mxCell>
        <mxCell id="-9JT4zHoGY7LnEIbJ8e5-33" value="&lt;font color=&quot;#000000&quot;&gt;NO&lt;/font&gt;" style="text;html=1;strokeColor=none;fillColor=none;align=center;verticalAlign=middle;whiteSpace=wrap;rounded=0;labelBackgroundColor=#FFFFFF;fontColor=#FF3C00;" vertex="1" parent="WIyWlLk6GJQsqaUBKTNV-1">
          <mxGeometry x="315" y="195" width="60" height="30" as="geometry" />
        </mxCell>
        <mxCell id="-9JT4zHoGY7LnEIbJ8e5-34" value="YES" style="text;html=1;strokeColor=none;fillColor=none;align=center;verticalAlign=middle;whiteSpace=wrap;rounded=0;labelBackgroundColor=#FFFFFF;fontColor=#000000;" vertex="1" parent="WIyWlLk6GJQsqaUBKTNV-1">
          <mxGeometry x="405" y="240" width="60" height="30" as="geometry" />
        </mxCell>
        <mxCell id="-9JT4zHoGY7LnEIbJ8e5-35" value="&lt;font color=&quot;#000000&quot;&gt;NO&lt;/font&gt;" style="text;html=1;strokeColor=none;fillColor=none;align=center;verticalAlign=middle;whiteSpace=wrap;rounded=0;labelBackgroundColor=#FFFFFF;fontColor=#FF3C00;" vertex="1" parent="WIyWlLk6GJQsqaUBKTNV-1">
          <mxGeometry x="315" y="375" width="60" height="30" as="geometry" />
        </mxCell>
        <mxCell id="-9JT4zHoGY7LnEIbJ8e5-36" value="YES" style="text;html=1;strokeColor=none;fillColor=none;align=center;verticalAlign=middle;whiteSpace=wrap;rounded=0;labelBackgroundColor=#FFFFFF;fontColor=#000000;" vertex="1" parent="WIyWlLk6GJQsqaUBKTNV-1">
          <mxGeometry x="450" y="345" width="60" height="30" as="geometry" />
        </mxCell>
      </root>
    </mxGraphModel>
  </diagram>
</mxfile>
